<svg width="232" height="67" viewBox="0 0 232 67" fill="none" xmlns="http://www.w3.org/2000/svg">
<path fill-rule="evenodd" clip-rule="evenodd" d="M2.62229 0.478337C2.0165 0.598759 1.25557 1.34611 1.07795 1.99495C0.990298 2.31492 0.885978 4.2118 0.845838 6.2103C0.764587 10.2533 0.931731 11.1982 1.84973 11.8847C2.35818 12.2647 2.74892 12.2744 21.3098 12.3695C38.8001 12.4591 40.306 12.4924 40.9692 12.8046C42.2938 13.4284 43.1599 14.6899 43.6249 16.673C44.0699 18.5705 43.8339 23.2565 43.2338 24.438C43.1397 24.6232 43.0627 24.8815 43.0627 25.0118C43.0627 25.3878 41.2283 27.0365 40.6141 27.2124C40.3077 27.3 31.5449 27.4214 21.1413 27.4819L2.22555 27.5919L1.73125 28.0864C1.45938 28.3582 1.1625 28.8382 1.07136 29.1529C0.980408 29.4674 0.874921 37.404 0.836914 46.7896C0.768655 63.6802 0.833998 65.8903 1.40178 65.8903C1.49137 65.8903 1.56468 65.9898 1.56468 66.1114C1.56468 66.7604 2.19801 66.8475 6.95961 66.8537C11.9495 66.8603 11.7951 66.887 12.4804 65.8955C12.7849 65.4552 12.8118 64.3669 12.8118 52.4985V39.5805L27.7918 39.4405C36.0307 39.3635 43.2518 39.2245 43.8384 39.1316C45.2708 38.9047 45.9914 38.745 46.4562 38.5512C48.1567 37.8423 49.268 37.2912 49.268 37.1566C49.268 37.0687 49.359 36.9968 49.4701 36.9968C49.8715 36.9968 52.3707 34.5329 52.3707 34.1373C52.3707 34.0035 52.4516 33.8941 52.5504 33.8941C52.7952 33.8941 54.432 30.4948 54.7023 29.4248C55.5542 26.0549 55.753 24.2532 55.7503 19.9322C55.7475 15.872 55.5468 13.0195 55.2509 12.8366C55.16 12.7804 55.0855 12.3956 55.0855 11.9816C55.0855 11.5676 55.0081 11.181 54.9135 11.1226C54.8191 11.0642 54.6822 10.6993 54.6094 10.3116C54.5367 9.92399 54.3959 9.44308 54.2967 9.24296C54.1972 9.04283 54.0287 8.70562 53.922 8.49386C53.8154 8.28191 53.7281 7.97649 53.7281 7.81515C53.7281 7.65362 53.6628 7.52059 53.5827 7.51943C53.5026 7.51807 53.2807 7.19094 53.0895 6.79224C52.5588 5.68557 51.1064 3.97387 49.8678 2.99517C49.2097 2.47509 46.8992 1.31838 46.5162 1.31722C46.3358 1.31664 46.14 1.23829 46.081 1.14289C45.9713 0.965067 45.4768 0.877417 42.7718 0.55571C41.2977 0.380216 3.48192 0.307497 2.62229 0.478337ZM74.3802 0.511496C72.9429 0.978834 72.8288 1.42135 72.8288 6.53317C72.8288 10.6355 72.8537 10.9438 73.2167 11.3659C73.43 11.614 73.779 11.9194 73.9923 12.0447C74.2791 12.2132 79.3194 12.2977 93.3258 12.3695C108.119 12.4451 112.325 12.5196 112.514 12.7088C112.647 12.8422 112.88 12.9512 113.031 12.9512C113.375 12.9512 114.812 14.4568 114.812 14.8175C114.812 14.9643 114.889 15.0843 114.984 15.0843C115.182 15.0843 115.336 15.763 115.599 17.7991C115.806 19.4036 115.64 23.6166 115.37 23.6166C115.276 23.6166 115.2 23.8365 115.2 24.1053C115.2 24.5664 114.463 25.9323 113.923 26.4726C113.787 26.6081 113.539 26.7193 113.371 26.7193C113.204 26.7193 113.066 26.7964 113.066 26.8905C113.066 26.9847 112.827 27.1319 112.533 27.2174C112.24 27.3029 103.492 27.4222 93.0931 27.4825C77.6932 27.5715 74.1135 27.6404 73.794 27.8535C72.8017 28.5151 72.8356 27.9134 72.7687 46.0139C72.7346 55.2928 72.7629 63.5139 72.8319 64.2829C72.9421 65.5089 73.0319 65.754 73.5603 66.2706L74.163 66.8599H78.8408H83.5186L84.0882 66.2655L84.6577 65.6712L84.7126 52.5944L84.7677 39.5177H93.2468C101.113 39.5177 101.741 39.5421 101.935 39.8571C102.051 40.0436 102.366 40.5891 102.637 41.069C102.908 41.549 103.456 42.5089 103.857 43.2021C104.257 43.8954 104.847 44.9425 105.169 45.5291C105.491 46.1157 106.081 47.1629 106.48 47.8561C107.358 49.3824 107.779 50.1424 108.522 51.5405C108.833 52.1271 109.132 52.6507 109.187 52.704C109.302 52.8173 109.78 53.6703 110.399 54.8648C110.639 55.3294 110.887 55.7533 110.949 55.8067C111.063 55.9052 112.137 57.8327 113.05 59.5774C113.325 60.1048 113.62 60.6284 113.703 60.7409C114.169 61.3678 115.2 63.2614 115.2 63.4898C115.2 63.637 115.274 63.7572 115.364 63.7572C115.455 63.7572 115.691 64.1181 115.89 64.5593C116.089 65.0004 116.586 65.6985 116.994 66.1106L117.735 66.8599H123.221H128.706L129.17 66.3662C129.544 65.9677 129.631 65.6745 129.619 64.8424C129.606 63.9641 129.218 62.8431 128.773 62.3998C128.72 62.3465 128.545 62.0411 128.385 61.7211C128.226 61.4011 127.986 61.024 127.853 60.8832C127.719 60.7422 127.61 60.5021 127.61 60.3499C127.61 60.1975 127.523 60.0728 127.416 60.0728C127.31 60.0728 127.222 59.8983 127.222 59.685C127.222 59.4717 127.155 59.2972 127.072 59.2972C126.99 59.2972 126.75 58.9712 126.539 58.5729C126.328 58.1746 125.698 57.0803 125.138 56.1414C124.578 55.2024 124.12 54.3504 124.12 54.2478C124.12 54.1454 124.052 54.0614 123.968 54.0614C123.885 54.0614 123.716 53.8214 123.594 53.5281C123.374 53.0028 122.758 51.9237 122.568 51.7342C122.515 51.6809 122.334 51.3755 122.167 51.0555C121.719 50.2015 121.321 49.5178 121.209 49.4074C121.155 49.3541 120.937 48.9614 120.724 48.5348C120.512 48.1082 120.273 47.7301 120.193 47.6946C120.113 47.6589 120.047 47.5063 120.047 47.3552C120.047 47.204 119.97 47.0804 119.876 47.0804C119.782 47.0804 119.656 46.9276 119.596 46.7411C119.536 46.5545 119.176 45.8782 118.795 45.2382C118.414 44.5983 117.912 43.7038 117.679 43.2506C117.446 42.7974 117.185 42.4265 117.1 42.4265C117.015 42.4265 116.945 42.2956 116.945 42.1356C116.945 41.9756 116.857 41.8447 116.751 41.8447C116.644 41.8447 116.557 41.6702 116.557 41.4569C116.557 41.2436 116.479 41.069 116.384 41.069C116.289 41.069 116.156 40.8509 116.089 40.5843C116.022 40.3176 115.882 40.0995 115.778 40.0995C115.673 40.0995 115.587 39.8813 115.587 39.6147C115.587 39.1915 115.672 39.1299 116.255 39.1299C116.622 39.1299 116.976 39.0426 117.042 38.936C117.108 38.8293 117.418 38.742 117.732 38.742C118.046 38.742 118.302 38.6548 118.302 38.5481C118.302 38.4415 118.475 38.3542 118.685 38.3542C119.093 38.3542 121.347 37.1998 122.016 36.6485C122.936 35.8894 124.507 34.2098 124.507 33.9851C124.507 33.9308 124.726 33.5408 124.992 33.1185C125.259 32.6961 125.477 32.2179 125.477 32.0558C125.477 31.8937 125.564 31.7611 125.671 31.7611C125.778 31.7611 125.865 31.6011 125.865 31.4056C125.865 31.21 125.926 30.9889 126.001 30.9142C126.204 30.7108 126.828 28.6241 126.832 28.1366C126.833 27.9029 126.922 27.6578 127.028 27.5919C127.135 27.5259 127.222 27.0584 127.222 26.5527C127.222 26.0469 127.305 25.5505 127.405 25.4491C127.691 25.1606 127.852 18.7115 127.627 16.5387C127.338 13.7416 127.123 12.4269 126.739 11.109C126.552 10.4691 126.356 9.74791 126.303 9.50629C126.25 9.26487 126.13 9.01976 126.036 8.96158C125.942 8.9036 125.865 8.6868 125.865 8.4797C125.865 8.2726 125.778 8.10331 125.671 8.10331C125.564 8.10331 125.477 7.96583 125.477 7.79789C125.477 7.41588 123.985 5.10343 123.23 4.3138C122.919 3.98938 122.316 3.4662 121.89 3.15128C121.463 2.83655 121.07 2.53036 121.017 2.47121C120.798 2.22765 118.651 1.31625 118.297 1.31625C118.087 1.31625 117.914 1.2381 117.914 1.14269C117.914 0.960025 117.316 0.853565 114.618 0.556097C112.781 0.353455 74.9949 0.311569 74.3802 0.511496ZM148.359 0.466313C147.638 0.720925 147.196 1.01316 147.196 1.23597C147.196 1.36899 147.087 1.51424 146.953 1.55864C146.761 1.62283 146.711 8.20783 146.711 33.6194V65.5994L147.276 66.2297L147.842 66.8599H152.592H157.342L157.892 66.2432L158.443 65.6266V33.7002V1.77389L157.849 1.10876L157.256 0.443626L152.953 0.403679C150.586 0.381766 148.519 0.409884 148.359 0.466313ZM181.616 0.48047C180.735 0.595075 179.208 1.17527 178.65 1.60712C177.676 2.36126 176.663 3.53504 176.221 4.42123L175.701 5.46469V33.636V61.8074L176.223 62.9278C176.759 64.0782 178.138 65.6157 178.998 66.0226C180.897 66.921 179.722 66.8727 197.915 66.8017C213.247 66.7422 215.116 66.7015 216.424 66.3997C217.224 66.2151 218.118 66.015 218.411 65.9551C218.705 65.8953 218.945 65.7689 218.945 65.6745C218.945 65.5798 219.111 65.5025 219.314 65.5025C220.02 65.5025 222.833 64.0681 223.783 63.224C224.053 62.9839 224.339 62.7876 224.418 62.7876C224.634 62.7876 226.418 60.973 226.829 60.3354C227.025 60.0311 227.314 59.6303 227.47 59.4449C227.909 58.9223 229.222 56.4095 229.222 56.0911C229.222 55.9346 229.288 55.8067 229.368 55.8067C229.448 55.8067 229.675 55.2614 229.872 54.5947C230.069 53.9282 230.309 53.2313 230.405 53.0461C230.501 52.8609 230.58 52.5074 230.58 52.2607C230.58 52.0139 230.658 51.729 230.754 51.6278C230.849 51.5264 230.973 51.0945 231.029 50.6679C231.193 49.4121 231.542 46.5282 231.747 44.7403C231.997 42.5583 231.993 24.8181 231.742 22.6689C230.999 16.2982 230.954 15.9844 230.754 15.7727C230.658 15.6713 230.58 15.3005 230.58 14.9485C230.58 14.5966 230.492 14.3086 230.386 14.3086C230.279 14.3086 230.192 14.156 230.193 13.9693C230.194 13.5246 229.555 11.7094 229.368 11.6262C229.288 11.5905 229.222 11.3506 229.222 11.0929C229.222 10.8352 229.157 10.6234 229.077 10.6225C228.997 10.6213 228.759 10.2286 228.548 9.74985C228.338 9.27088 228.098 8.87898 228.015 8.87898C227.932 8.87898 227.865 8.70445 227.865 8.49114C227.865 8.27784 227.796 8.10331 227.713 8.10331C227.629 8.10331 227.394 7.82116 227.19 7.47619C226.657 6.5739 224.005 4.03107 223.597 4.03107C223.491 4.03107 223.405 3.95661 223.405 3.86547C223.405 3.65856 220.024 1.97362 219.235 1.78785C218.916 1.71242 218.566 1.58637 218.46 1.50784C218.353 1.4293 217.96 1.30713 217.587 1.23635C217.214 1.16557 216.472 1.02343 215.939 0.920659C213.617 0.473101 209.856 0.370132 196.45 0.387002C188.611 0.396698 181.936 0.438778 181.616 0.48047ZM187.579 12.5913C187.388 12.7831 187.336 17.2942 187.336 33.836V54.8371L200.086 54.835C210.921 54.8332 212.982 54.7888 213.806 54.5388C215.068 54.1561 215.842 53.8091 215.842 53.6263C215.842 53.5456 215.958 53.4797 216.1 53.4797C216.567 53.4797 217.761 52.0905 218.333 50.8826C219.72 47.9521 219.817 46.8324 219.817 33.7002C219.817 25.8195 219.747 22.2268 219.566 20.9018C219.302 18.9609 218.987 17.6314 218.718 17.324C218.629 17.2228 218.557 17.0203 218.557 16.8741C218.557 16.5408 217.618 15.1677 216.883 14.4256C216.297 13.8335 215.162 13.2469 213.709 12.7837C212.488 12.3949 187.954 12.2141 187.579 12.5913Z" fill="white"/>
</svg>
